<mxfile host="Electron" agent="Mozilla/5.0 (Windows NT 10.0; Win64; x64) AppleWebKit/537.36 (KHTML, like Gecko) draw.io/24.7.8 Chrome/128.0.6613.36 Electron/32.0.1 Safari/537.36" version="24.7.8">
  <diagram id="EcT_xhc5IlusunLJqKPK" name="Page-2">
    <mxGraphModel dx="1323" dy="778" grid="1" gridSize="10" guides="1" tooltips="1" connect="1" arrows="1" fold="1" page="1" pageScale="1" pageWidth="850" pageHeight="1100" math="0" shadow="0">
      <root>
        <mxCell id="0" />
        <mxCell id="1" parent="0" />
        <mxCell id="WIrCfd4PRjtjZYRbNJbR-22" style="edgeStyle=orthogonalEdgeStyle;rounded=0;orthogonalLoop=1;jettySize=auto;html=1;exitX=0.5;exitY=1;exitDx=0;exitDy=0;entryX=0.5;entryY=0;entryDx=0;entryDy=0;" edge="1" parent="1" source="zY4H85iP8INKNg9YpYOx-2" target="WIrCfd4PRjtjZYRbNJbR-8">
          <mxGeometry relative="1" as="geometry" />
        </mxCell>
        <mxCell id="zY4H85iP8INKNg9YpYOx-2" value="start" style="ellipse;whiteSpace=wrap;html=1;labelBackgroundColor=none;rounded=0;" parent="1" vertex="1">
          <mxGeometry x="390.75" y="180" width="120" height="80" as="geometry" />
        </mxCell>
        <mxCell id="WIrCfd4PRjtjZYRbNJbR-7" style="edgeStyle=orthogonalEdgeStyle;rounded=0;orthogonalLoop=1;jettySize=auto;html=1;exitX=0.5;exitY=1;exitDx=0;exitDy=0;entryX=0.5;entryY=0;entryDx=0;entryDy=0;" edge="1" parent="1" source="zY4H85iP8INKNg9YpYOx-5" target="zY4H85iP8INKNg9YpYOx-7">
          <mxGeometry relative="1" as="geometry" />
        </mxCell>
        <mxCell id="zY4H85iP8INKNg9YpYOx-5" value="cleaningFee =&amp;nbsp;&amp;nbsp;&lt;div&gt;40 + (numBR * 15)&amp;nbsp;&lt;/div&gt;&lt;div&gt;+ (numOR * 10)&lt;/div&gt;" style="rounded=0;whiteSpace=wrap;html=1;labelBackgroundColor=none;" parent="1" vertex="1">
          <mxGeometry x="390.74" y="394.5" width="120" height="60" as="geometry" />
        </mxCell>
        <mxCell id="WIrCfd4PRjtjZYRbNJbR-4" style="edgeStyle=orthogonalEdgeStyle;rounded=0;orthogonalLoop=1;jettySize=auto;html=1;exitX=0.5;exitY=1;exitDx=0;exitDy=0;entryX=0.5;entryY=0;entryDx=0;entryDy=0;" edge="1" parent="1" source="zY4H85iP8INKNg9YpYOx-7" target="WIrCfd4PRjtjZYRbNJbR-3">
          <mxGeometry relative="1" as="geometry" />
        </mxCell>
        <mxCell id="zY4H85iP8INKNg9YpYOx-7" value="output var cleaningFee" style="shape=parallelogram;perimeter=parallelogramPerimeter;whiteSpace=wrap;html=1;fixedSize=1;labelBackgroundColor=none;rounded=0;" parent="1" vertex="1">
          <mxGeometry x="390.74" y="484.5" width="120" height="60" as="geometry" />
        </mxCell>
        <mxCell id="zY4H85iP8INKNg9YpYOx-8" value="stop" style="ellipse;whiteSpace=wrap;html=1;labelBackgroundColor=none;rounded=0;" parent="1" vertex="1">
          <mxGeometry x="390.75" y="684.5" width="120" height="80" as="geometry" />
        </mxCell>
        <mxCell id="zY4H85iP8INKNg9YpYOx-12" value="&lt;div&gt;start&lt;/div&gt;&lt;div&gt;&lt;span style=&quot;background-color: initial; white-space: pre;&quot;&gt;&#x9;&lt;/span&gt;&lt;span style=&quot;white-space: pre;&quot;&gt;const&lt;/span&gt;&lt;span style=&quot;background-color: initial; white-space: pre;&quot;&gt; priceBR = 15&lt;/span&gt;&lt;/div&gt;&lt;div&gt;&lt;span style=&quot;white-space: pre;&quot;&gt;&#x9;&lt;/span&gt;&lt;span style=&quot;white-space: pre; background-color: initial;&quot;&gt;const priceOR = 10&lt;/span&gt;&lt;/div&gt;&lt;div&gt;&lt;span style=&quot;white-space: pre;&quot;&gt;&#x9;&lt;/span&gt;Input var custNam&lt;br&gt;&lt;/div&gt;&lt;div&gt;&lt;span style=&quot;white-space: pre;&quot;&gt;&#x9;&lt;/span&gt;&lt;span style=&quot;background-color: initial;&quot;&gt;Input var numBR&lt;/span&gt;&lt;br&gt;&lt;/div&gt;&lt;div&gt;&lt;span style=&quot;background-color: initial;&quot;&gt;&lt;span style=&quot;white-space: pre;&quot;&gt;&#x9;&lt;/span&gt;&lt;/span&gt;&lt;span style=&quot;background-color: initial;&quot;&gt;Input var numOR&lt;/span&gt;&lt;br&gt;&lt;/div&gt;&lt;div&gt;&lt;span style=&quot;white-space: pre;&quot;&gt;&#x9;&lt;/span&gt;var cleaningFee = 40 + (priceBR * numBR)&amp;nbsp;&lt;/div&gt;&lt;div&gt;&lt;span style=&quot;white-space: pre;&quot;&gt;&#x9;&lt;/span&gt;+&amp;nbsp;&lt;span style=&quot;background-color: initial;&quot;&gt;(priceOR * &lt;/span&gt;&lt;span style=&quot;background-color: initial;&quot;&gt;numOR)&lt;/span&gt;&lt;/div&gt;&lt;div&gt;&lt;span style=&quot;background-color: initial; white-space: pre;&quot;&gt;&#x9;&lt;/span&gt;&lt;span style=&quot;background-color: initial; white-space: pre;&quot;&gt;output var cleaningFee&lt;/span&gt;&lt;br&gt;&lt;/div&gt;&lt;div&gt;&lt;span style=&quot;background-color: initial; white-space: pre;&quot;&gt;&lt;span style=&quot;white-space: pre;&quot;&gt;&#x9;&lt;/span&gt;print custNam&lt;/span&gt;&lt;span style=&quot;background-color: initial;&quot;&gt;, numBR, costBR, numOR, &lt;span style=&quot;white-space: pre;&quot;&gt;&#x9;&lt;/span&gt;costOR,&amp;nbsp;&lt;/span&gt;&lt;span style=&quot;background-color: initial; white-space: pre;&quot;&gt;cleaningFee&lt;/span&gt;&lt;/div&gt;&lt;div&gt;&lt;span style=&quot;background-color: initial; white-space: pre;&quot;&gt;&lt;span style=&quot;white-space: pre;&quot;&gt;&#x9;&lt;/span&gt;print end of program message&lt;br&gt;&lt;/span&gt;&lt;/div&gt;&lt;div&gt;&lt;span style=&quot;background-color: initial;&quot;&gt;stop&lt;/span&gt;&lt;/div&gt;" style="text;html=1;align=left;verticalAlign=top;whiteSpace=wrap;rounded=0;fillColor=#a20025;fontColor=#ffffff;strokeColor=#6F0000;" parent="1" vertex="1">
          <mxGeometry x="50" y="440" width="270" height="200" as="geometry" />
        </mxCell>
        <mxCell id="zY4H85iP8INKNg9YpYOx-13" value="&lt;div&gt;// part 1&lt;/div&gt;// this flowchart calculates the cost of&amp;nbsp;&lt;div&gt;// a cleaning service.&lt;/div&gt;&lt;div&gt;// takes user input for name, number of&lt;/div&gt;&lt;div&gt;// bathrooms to clean, and number of&lt;/div&gt;&lt;div&gt;// other rooms to clean.&lt;/div&gt;&lt;div&gt;// formula is total = 40 + 15(number of&lt;/div&gt;&lt;div&gt;// bathrooms) +10(number of other rooms)&lt;/div&gt;&lt;div&gt;// display name,&amp;nbsp; total, num of bathrooms &amp;amp;&lt;/div&gt;&lt;div&gt;//&amp;nbsp; charge,&amp;nbsp;&lt;/div&gt;&lt;div&gt;// and&amp;nbsp;&lt;span style=&quot;background-color: initial;&quot;&gt;num of other rooms &amp;amp; charge&lt;/span&gt;&lt;/div&gt;" style="text;html=1;align=left;verticalAlign=top;whiteSpace=wrap;rounded=0;fillColor=#008a00;fontColor=#ffffff;strokeColor=#005700;" parent="1" vertex="1">
          <mxGeometry x="50" y="230" width="250" height="180" as="geometry" />
        </mxCell>
        <mxCell id="zY4H85iP8INKNg9YpYOx-19" value="&lt;div&gt;&lt;font style=&quot;background-color: rgb(0, 138, 0); font-size: 12px;&quot;&gt;// part 2&lt;/font&gt;&lt;/div&gt;&lt;font style=&quot;background-color: rgb(0, 138, 0); font-size: 12px;&quot;&gt;// this&amp;nbsp;&lt;span style=&quot;font-family: &amp;quot;Lato Extended&amp;quot;, Lato, &amp;quot;Helvetica Neue&amp;quot;, Helvetica, Arial, sans-serif;&quot;&gt;flowchart calculates&amp;nbsp;&lt;/span&gt;&lt;/font&gt;&lt;span style=&quot;font-family: &amp;quot;Lato Extended&amp;quot;, Lato, &amp;quot;Helvetica Neue&amp;quot;, Helvetica, Arial, sans-serif; background-color: rgb(0, 138, 0);&quot;&gt;the estimated cost&amp;nbsp;of&lt;/span&gt;&lt;div&gt;&lt;font style=&quot;background-color: rgb(0, 138, 0); font-size: 12px;&quot;&gt;&lt;span style=&quot;font-family: &amp;quot;Lato Extended&amp;quot;, Lato, &amp;quot;Helvetica Neue&amp;quot;, Helvetica, Arial, sans-serif;&quot;&gt;// a remodeling project.&lt;/span&gt;&lt;/font&gt;&lt;div style=&quot;&quot;&gt;&lt;font style=&quot;background-color: rgb(0, 138, 0); font-size: 12px;&quot;&gt;// assume labour cost of $30/hr.&lt;/font&gt;&lt;/div&gt;&lt;div style=&quot;&quot;&gt;&lt;font style=&quot;background-color: rgb(0, 138, 0); font-size: 12px;&quot;&gt;// prompt the user to input projected hrs &amp;amp;&amp;nbsp;&lt;/font&gt;&lt;/div&gt;&lt;div style=&quot;&quot;&gt;&lt;font style=&quot;background-color: rgb(0, 138, 0); font-size: 12px;&quot;&gt;&lt;font style=&quot;font-size: 12px;&quot;&gt;// &quot;wholesale&quot; cost of&lt;/font&gt;&amp;nbsp;materials.&amp;nbsp;&lt;/font&gt;&lt;/div&gt;&lt;div style=&quot;&quot;&gt;&lt;font style=&quot;background-color: rgb(0, 138, 0); font-size: 12px;&quot;&gt;// program then calculates and displays&amp;nbsp;&lt;span style=&quot;font-family: &amp;quot;Lato Extended&amp;quot;, Lato, &amp;quot;Helvetica Neue&amp;quot;, Helvetica, Arial, sans-serif;&quot;&gt;the total cost of&lt;/span&gt;&lt;/font&gt;&lt;/div&gt;&lt;div style=&quot;&quot;&gt;&lt;font style=&quot;background-color: rgb(0, 138, 0); font-size: 12px;&quot;&gt;&lt;span style=&quot;font-family: &amp;quot;Lato Extended&amp;quot;, Lato, &amp;quot;Helvetica Neue&amp;quot;, Helvetica, Arial, sans-serif;&quot;&gt;// the job, which includes the hourly rate&lt;/span&gt;&lt;/font&gt;&lt;/div&gt;&lt;div style=&quot;&quot;&gt;&lt;font style=&quot;background-color: rgb(0, 138, 0); font-size: 12px;&quot;&gt;&lt;span style=&quot;font-family: &amp;quot;Lato Extended&amp;quot;, Lato, &amp;quot;Helvetica Neue&amp;quot;, Helvetica, Arial, sans-serif;&quot;&gt;// multiplied by the number of hours plus 120% of&lt;/span&gt;&lt;/font&gt;&lt;/div&gt;&lt;div style=&quot;&quot;&gt;&lt;font style=&quot;background-color: rgb(0, 138, 0); font-size: 12px;&quot;&gt;&lt;span style=&quot;font-family: &amp;quot;Lato Extended&amp;quot;, Lato, &amp;quot;Helvetica Neue&amp;quot;, Helvetica, Arial, sans-serif;&quot;&gt;// the wholesale price of materials.&lt;/span&gt;&lt;/font&gt;&lt;/div&gt;&lt;div style=&quot;&quot;&gt;&lt;font style=&quot;background-color: rgb(0, 138, 0); font-size: 12px;&quot;&gt;&lt;span style=&quot;font-family: &amp;quot;Lato Extended&amp;quot;, Lato, &amp;quot;Helvetica Neue&amp;quot;, Helvetica, Arial, sans-serif;&quot;&gt;// display end-of-program message&lt;/span&gt;&lt;/font&gt;&lt;/div&gt;&lt;/div&gt;" style="text;html=1;align=left;verticalAlign=top;whiteSpace=wrap;rounded=0;fillColor=#008a00;fontColor=#ffffff;strokeColor=#005700;" parent="1" vertex="1">
          <mxGeometry x="610" y="230" width="300" height="176" as="geometry" />
        </mxCell>
        <mxCell id="WIrCfd4PRjtjZYRbNJbR-11" style="edgeStyle=orthogonalEdgeStyle;rounded=0;orthogonalLoop=1;jettySize=auto;html=1;exitX=0.5;exitY=1;exitDx=0;exitDy=0;entryX=0.5;entryY=0;entryDx=0;entryDy=0;" edge="1" parent="1" source="zY4H85iP8INKNg9YpYOx-21" target="WIrCfd4PRjtjZYRbNJbR-1">
          <mxGeometry relative="1" as="geometry" />
        </mxCell>
        <mxCell id="zY4H85iP8INKNg9YpYOx-21" value="start" style="ellipse;whiteSpace=wrap;html=1;" parent="1" vertex="1">
          <mxGeometry x="960" y="160" width="120" height="80" as="geometry" />
        </mxCell>
        <mxCell id="WIrCfd4PRjtjZYRbNJbR-13" style="edgeStyle=orthogonalEdgeStyle;rounded=0;orthogonalLoop=1;jettySize=auto;html=1;exitX=0.5;exitY=1;exitDx=0;exitDy=0;entryX=0.5;entryY=0;entryDx=0;entryDy=0;" edge="1" parent="1" source="zY4H85iP8INKNg9YpYOx-22" target="zY4H85iP8INKNg9YpYOx-23">
          <mxGeometry relative="1" as="geometry" />
        </mxCell>
        <mxCell id="zY4H85iP8INKNg9YpYOx-22" value="totalCost =&amp;nbsp;&lt;span style=&quot;color: rgb(255, 255, 255); text-align: left; background-color: initial;&quot;&gt;(&lt;/span&gt;&lt;span style=&quot;color: rgb(255, 255, 255); text-align: left; background-color: initial;&quot;&gt;costOfMats * 1.20) +&amp;nbsp;&lt;/span&gt;&lt;span style=&quot;color: rgb(255, 255, 255); text-align: left; background-color: initial;&quot;&gt;(&lt;/span&gt;&lt;span style=&quot;color: rgb(255, 255, 255); text-align: left; background-color: initial;&quot;&gt;projHrs *&amp;nbsp;&lt;/span&gt;&lt;span style=&quot;color: rgb(255, 255, 255); text-align: left; background-color: initial;&quot;&gt;chargePerHr&lt;/span&gt;&lt;span style=&quot;color: rgb(255, 255, 255); text-align: left; background-color: initial;&quot;&gt;)&lt;/span&gt;" style="rounded=0;whiteSpace=wrap;html=1;" parent="1" vertex="1">
          <mxGeometry x="930" y="386" width="180" height="70" as="geometry" />
        </mxCell>
        <mxCell id="WIrCfd4PRjtjZYRbNJbR-15" style="edgeStyle=orthogonalEdgeStyle;rounded=0;orthogonalLoop=1;jettySize=auto;html=1;exitX=0.5;exitY=1;exitDx=0;exitDy=0;entryX=0.5;entryY=0;entryDx=0;entryDy=0;" edge="1" parent="1" source="zY4H85iP8INKNg9YpYOx-23" target="WIrCfd4PRjtjZYRbNJbR-14">
          <mxGeometry relative="1" as="geometry" />
        </mxCell>
        <mxCell id="zY4H85iP8INKNg9YpYOx-23" value="output var totalCost" style="shape=parallelogram;perimeter=parallelogramPerimeter;whiteSpace=wrap;html=1;fixedSize=1;" parent="1" vertex="1">
          <mxGeometry x="950" y="490" width="140" height="60" as="geometry" />
        </mxCell>
        <mxCell id="zY4H85iP8INKNg9YpYOx-24" value="stop" style="ellipse;whiteSpace=wrap;html=1;" parent="1" vertex="1">
          <mxGeometry x="960" y="700" width="120" height="80" as="geometry" />
        </mxCell>
        <mxCell id="WIrCfd4PRjtjZYRbNJbR-12" style="edgeStyle=orthogonalEdgeStyle;rounded=0;orthogonalLoop=1;jettySize=auto;html=1;exitX=0.5;exitY=1;exitDx=0;exitDy=0;entryX=0.5;entryY=0;entryDx=0;entryDy=0;" edge="1" parent="1" source="WIrCfd4PRjtjZYRbNJbR-1" target="zY4H85iP8INKNg9YpYOx-22">
          <mxGeometry relative="1" as="geometry" />
        </mxCell>
        <mxCell id="WIrCfd4PRjtjZYRbNJbR-1" value="input const chargePerHr = 30&lt;div&gt;input var projHrs&lt;/div&gt;&lt;div&gt;input var costOfMats&lt;/div&gt;" style="shape=parallelogram;perimeter=parallelogramPerimeter;whiteSpace=wrap;html=1;fixedSize=1;" vertex="1" parent="1">
          <mxGeometry x="920" y="264.5" width="200" height="90" as="geometry" />
        </mxCell>
        <mxCell id="WIrCfd4PRjtjZYRbNJbR-2" value="start&lt;div&gt;&lt;span style=&quot;white-space: pre;&quot;&gt;&#x9;&lt;/span&gt;const chargePerHr = 30&lt;/div&gt;&lt;div&gt;&lt;span style=&quot;white-space: pre;&quot;&gt;&#x9;&lt;/span&gt;print &quot;input info&quot;&lt;br&gt;&lt;/div&gt;&lt;div&gt;&lt;span style=&quot;white-space: pre;&quot;&gt;&#x9;&lt;/span&gt;input projHrs&lt;br&gt;&lt;/div&gt;&lt;div&gt;&lt;span style=&quot;white-space: pre;&quot;&gt;&#x9;&lt;/span&gt;input costOfMats&amp;nbsp;&lt;br&gt;&lt;/div&gt;&lt;div&gt;&lt;span style=&quot;white-space: pre;&quot;&gt;&#x9;&lt;/span&gt;totalCost = (&lt;span style=&quot;background-color: initial;&quot;&gt;costOfMats * 1.20) +&amp;nbsp;&lt;/span&gt;&lt;/div&gt;&lt;div&gt;&lt;span style=&quot;background-color: initial;&quot;&gt;&lt;span style=&quot;white-space: pre;&quot;&gt;&#x9;&lt;/span&gt;(&lt;/span&gt;&lt;span style=&quot;background-color: initial;&quot;&gt;projHrs *&amp;nbsp;&lt;/span&gt;&lt;span style=&quot;background-color: initial;&quot;&gt;chargePerHr&lt;/span&gt;&lt;span style=&quot;background-color: initial;&quot;&gt;)&lt;/span&gt;&lt;/div&gt;&lt;div&gt;&lt;span style=&quot;background-color: initial;&quot;&gt;&lt;span style=&quot;white-space: pre;&quot;&gt;&#x9;&lt;/span&gt;print&amp;nbsp;&lt;/span&gt;&lt;span style=&quot;background-color: initial;&quot;&gt;totalCost&lt;/span&gt;&lt;span style=&quot;background-color: initial;&quot;&gt;, &quot;End of program message&quot;&lt;/span&gt;&lt;/div&gt;&lt;div&gt;&lt;span style=&quot;background-color: initial;&quot;&gt;stop&lt;/span&gt;&lt;/div&gt;" style="text;html=1;align=left;verticalAlign=top;whiteSpace=wrap;rounded=0;fillColor=#a20025;fontColor=#ffffff;strokeColor=#6F0000;" vertex="1" parent="1">
          <mxGeometry x="610" y="440" width="300" height="150" as="geometry" />
        </mxCell>
        <mxCell id="WIrCfd4PRjtjZYRbNJbR-6" style="edgeStyle=orthogonalEdgeStyle;rounded=0;orthogonalLoop=1;jettySize=auto;html=1;exitX=0.5;exitY=1;exitDx=0;exitDy=0;" edge="1" parent="1" source="WIrCfd4PRjtjZYRbNJbR-3" target="zY4H85iP8INKNg9YpYOx-8">
          <mxGeometry relative="1" as="geometry" />
        </mxCell>
        <mxCell id="WIrCfd4PRjtjZYRbNJbR-3" value="&lt;span style=&quot;color: rgb(240, 240, 240); font-family: Helvetica; font-size: 12px; font-style: normal; font-variant-ligatures: normal; font-variant-caps: normal; font-weight: 400; letter-spacing: normal; orphans: 2; text-align: center; text-indent: 0px; text-transform: none; widows: 2; word-spacing: 0px; -webkit-text-stroke-width: 0px; white-space: normal; background-color: rgb(27, 29, 30); text-decoration-thickness: initial; text-decoration-style: initial; text-decoration-color: initial; display: inline !important; float: none;&quot;&gt;print&amp;nbsp;&lt;/span&gt;&lt;span style=&quot;forced-color-adjust: none; border-color: rgb(0, 0, 0); color: rgb(240, 240, 240); font-family: Helvetica; font-size: 12px; font-style: normal; font-variant-ligatures: normal; font-variant-caps: normal; font-weight: 400; letter-spacing: normal; orphans: 2; text-align: center; text-indent: 0px; text-transform: none; widows: 2; word-spacing: 0px; -webkit-text-stroke-width: 0px; white-space: normal; background-color: initial; text-decoration-thickness: initial; text-decoration-style: initial; text-decoration-color: initial;&quot;&gt;custNam, numBR, costBR, numOR, costOR,&lt;/span&gt;&lt;span style=&quot;forced-color-adjust: none; border-color: rgb(0, 0, 0); color: rgb(240, 240, 240); font-family: Helvetica; font-size: 12px; font-style: normal; font-variant-ligatures: normal; font-variant-caps: normal; font-weight: 400; letter-spacing: normal; orphans: 2; text-align: center; text-indent: 0px; text-transform: none; widows: 2; word-spacing: 0px; -webkit-text-stroke-width: 0px; white-space: normal; background-color: initial; text-decoration-thickness: initial; text-decoration-style: initial; text-decoration-color: initial;&quot;&gt;&amp;nbsp;&lt;/span&gt;&lt;span style=&quot;forced-color-adjust: none; border-color: rgb(0, 0, 0); color: rgb(240, 240, 240); font-family: Helvetica; font-size: 12px; font-style: normal; font-variant-ligatures: normal; font-variant-caps: normal; font-weight: 400; letter-spacing: normal; orphans: 2; text-align: center; text-indent: 0px; text-transform: none; widows: 2; word-spacing: 0px; -webkit-text-stroke-width: 0px; white-space: normal; background-color: initial; text-decoration-thickness: initial; text-decoration-style: initial; text-decoration-color: initial;&quot;&gt;cleaningFee,&amp;nbsp;&lt;/span&gt;&lt;div&gt;&lt;span style=&quot;forced-color-adjust: none; border-color: rgb(0, 0, 0); color: rgb(240, 240, 240); font-family: Helvetica; font-size: 12px; font-style: normal; font-variant-ligatures: normal; font-variant-caps: normal; font-weight: 400; letter-spacing: normal; orphans: 2; text-align: center; text-indent: 0px; text-transform: none; widows: 2; word-spacing: 0px; -webkit-text-stroke-width: 0px; white-space: normal; background-color: initial; text-decoration-thickness: initial; text-decoration-style: initial; text-decoration-color: initial;&quot;&gt;&quot;End of program&quot;&lt;/span&gt;&lt;/div&gt;" style="shape=parallelogram;perimeter=parallelogramPerimeter;whiteSpace=wrap;html=1;fixedSize=1;" vertex="1" parent="1">
          <mxGeometry x="371.13" y="574.5" width="159.25" height="80" as="geometry" />
        </mxCell>
        <mxCell id="WIrCfd4PRjtjZYRbNJbR-10" style="edgeStyle=orthogonalEdgeStyle;rounded=0;orthogonalLoop=1;jettySize=auto;html=1;exitX=0.5;exitY=1;exitDx=0;exitDy=0;entryX=0.5;entryY=0;entryDx=0;entryDy=0;" edge="1" parent="1" source="WIrCfd4PRjtjZYRbNJbR-8" target="zY4H85iP8INKNg9YpYOx-5">
          <mxGeometry relative="1" as="geometry" />
        </mxCell>
        <mxCell id="WIrCfd4PRjtjZYRbNJbR-8" value="input var numBR&lt;div&gt;input var numOR&lt;/div&gt;" style="shape=parallelogram;perimeter=parallelogramPerimeter;whiteSpace=wrap;html=1;fixedSize=1;" vertex="1" parent="1">
          <mxGeometry x="386.11" y="294.5" width="129.26" height="70" as="geometry" />
        </mxCell>
        <mxCell id="WIrCfd4PRjtjZYRbNJbR-16" style="edgeStyle=orthogonalEdgeStyle;rounded=0;orthogonalLoop=1;jettySize=auto;html=1;exitX=0.5;exitY=1;exitDx=0;exitDy=0;entryX=0.5;entryY=0;entryDx=0;entryDy=0;" edge="1" parent="1" source="WIrCfd4PRjtjZYRbNJbR-14" target="zY4H85iP8INKNg9YpYOx-24">
          <mxGeometry relative="1" as="geometry" />
        </mxCell>
        <mxCell id="WIrCfd4PRjtjZYRbNJbR-14" value="print totalCost,&amp;nbsp;&lt;div&gt;&quot;End of Program&quot;&lt;/div&gt;" style="shape=parallelogram;perimeter=parallelogramPerimeter;whiteSpace=wrap;html=1;fixedSize=1;" vertex="1" parent="1">
          <mxGeometry x="935" y="590" width="170" height="80" as="geometry" />
        </mxCell>
        <mxCell id="WIrCfd4PRjtjZYRbNJbR-17" value="" style="endArrow=none;html=1;rounded=0;fillColor=#1ba1e2;strokeColor=#006EAF;strokeWidth=4;" edge="1" parent="1">
          <mxGeometry width="50" height="50" relative="1" as="geometry">
            <mxPoint x="580" y="830" as="sourcePoint" />
            <mxPoint x="580" y="120" as="targetPoint" />
          </mxGeometry>
        </mxCell>
      </root>
    </mxGraphModel>
  </diagram>
</mxfile>
